<svg width="38" height="38" viewBox="0 0 38 38" fill="none" xmlns="http://www.w3.org/2000/svg">
<path fill-rule="evenodd" clip-rule="evenodd" d="M9.5 12.6667C9.5 10.1471 10.5009 7.73074 12.2825 5.94914C14.0641 4.16755 16.4804 3.16666 19 3.16666C21.5196 3.16666 23.9359 4.16755 25.7175 5.94914C27.4991 7.73074 28.5 10.1471 28.5 12.6667H30.0833C30.9232 12.6667 31.7286 13.0003 32.3225 13.5942C32.9164 14.188 33.25 14.9935 33.25 15.8333V31.6667C33.25 32.5065 32.9164 33.312 32.3225 33.9058C31.7286 34.4997 30.9232 34.8333 30.0833 34.8333H7.91667C7.07681 34.8333 6.27136 34.4997 5.6775 33.9058C5.08363 33.312 4.75 32.5065 4.75 31.6667V15.8333C4.75 14.9935 5.08363 14.188 5.6775 13.5942C6.27136 13.0003 7.07681 12.6667 7.91667 12.6667H9.5ZM19 6.33332C20.6797 6.33332 22.2906 7.00058 23.4783 8.18831C24.6661 9.37604 25.3333 10.987 25.3333 12.6667H12.6667C12.6667 10.987 13.3339 9.37604 14.5217 8.18831C15.7094 7.00058 17.3203 6.33332 19 6.33332ZM22.1667 22.1667C22.1667 22.7225 22.0203 23.2686 21.7424 23.7499C21.4645 24.2313 21.0647 24.6311 20.5833 24.909V26.9167C20.5833 27.3366 20.4165 27.7393 20.1196 28.0362C19.8227 28.3332 19.4199 28.5 19 28.5C18.5801 28.5 18.1773 28.3332 17.8804 28.0362C17.5835 27.7393 17.4167 27.3366 17.4167 26.9167V24.909C16.813 24.5604 16.3412 24.0224 16.0745 23.3784C15.8078 22.7344 15.761 22.0204 15.9414 21.3471C16.1218 20.6737 16.5193 20.0788 17.0723 19.6544C17.6254 19.2301 18.3029 19 19 19C19.8399 19 20.6453 19.3336 21.2392 19.9275C21.833 20.5214 22.1667 21.3268 22.1667 22.1667Z" fill="#FBC403"/>
</svg>
