<svg width="38" height="38" viewBox="0 0 38 38" fill="none" xmlns="http://www.w3.org/2000/svg">
<path fill-rule="evenodd" clip-rule="evenodd" d="M6.33335 4.75C5.4935 4.75 4.68805 5.08363 4.09418 5.6775C3.50032 6.27136 3.16669 7.07681 3.16669 7.91667V30.0833C3.16669 30.9232 3.50032 31.7286 4.09418 32.3225C4.68805 32.9164 5.4935 33.25 6.33335 33.25H31.6667C32.5065 33.25 33.312 32.9164 33.9059 32.3225C34.4997 31.7286 34.8334 30.9232 34.8334 30.0833V7.91667C34.8334 7.07681 34.4997 6.27136 33.9059 5.6775C33.312 5.08363 32.5065 4.75 31.6667 4.75H6.33335ZM13.6563 13.6642C13.6914 13.3615 13.7968 13.0712 13.9641 12.8164C14.1313 12.5617 14.3558 12.3496 14.6196 12.197C14.8834 12.0444 15.1792 11.9556 15.4834 11.9376C15.7876 11.9196 16.0918 11.973 16.3717 12.0935C17.1697 12.4355 18.8544 13.205 20.9887 14.4368C22.4887 15.2941 23.9372 16.2383 25.327 17.2647C25.5714 17.4465 25.7698 17.6829 25.9066 17.9551C26.0433 18.2272 26.1145 18.5276 26.1145 18.8322C26.1145 19.1367 26.0433 19.4371 25.9066 19.7093C25.7698 19.9814 25.5714 20.2178 25.327 20.3997C23.9372 21.4249 22.4886 22.3681 20.9887 23.2243C19.4967 24.0958 17.9551 24.8793 16.3717 25.5708C16.0918 25.6917 15.7875 25.7453 15.4832 25.7275C15.1789 25.7097 14.8829 25.6209 14.619 25.4683C14.3552 25.3156 14.1306 25.1034 13.9635 24.8485C13.7963 24.5935 13.6911 24.303 13.6563 24.0002C13.4663 22.2841 13.3733 20.5587 13.3776 18.8322C13.3776 16.3764 13.5549 14.5271 13.6563 13.6642Z" fill="#DE5A77"/>
</svg>
