<svg width="30" height="30" viewBox="0 0 30 30" fill="none" xmlns="http://www.w3.org/2000/svg">
<path d="M11.875 11.25L13.6063 12.2987C13.7821 12.4071 13.9542 12.4121 14.1225 12.3137C14.2908 12.2154 14.375 12.0654 14.375 11.8638V6.00875C14.375 5.71875 14.2792 5.47792 14.0875 5.28625C13.8958 5.09458 13.655 4.99917 13.365 5H10.385C10.095 5 9.85417 5.09583 9.6625 5.2875C9.47083 5.47917 9.375 5.72 9.375 6.01V11.8625C9.375 12.0642 9.45917 12.2142 9.6275 12.3125C9.79583 12.4108 9.96833 12.4058 10.145 12.2975L11.875 11.25ZM18.3313 25.66C17.3604 24.69 16.875 23.5083 16.875 22.115C16.875 20.7233 17.3642 19.5421 18.3425 18.5713C19.3208 17.6004 20.5383 17.115 21.995 17.115C23.3233 17.115 24.4692 17.6004 25.4325 18.5713C26.3958 19.5421 26.8767 20.7233 26.875 22.115C26.875 23.5083 26.39 24.69 25.42 25.66C24.4492 26.63 23.2675 27.115 21.875 27.115C20.4825 27.115 19.3013 26.63 18.3313 25.66ZM21.5938 23.9013L23.6275 22.4788C23.7717 22.3696 23.8438 22.2321 23.8438 22.0662C23.8438 21.9021 23.7717 21.7654 23.6275 21.6562L21.5938 20.2337C21.4179 20.1246 21.2404 20.1154 21.0613 20.2063C20.8829 20.2963 20.7938 20.4421 20.7938 20.6437V23.49C20.7938 23.6925 20.8829 23.8387 21.0613 23.9287C21.2396 24.0187 21.4171 24.0096 21.5938 23.9013ZM7.01875 26.25C6.46042 26.25 5.98417 26.0533 5.59 25.66C5.19667 25.2667 5 24.7904 5 24.2313V5.76875C5 5.21042 5.19667 4.73417 5.59 4.34C5.98333 3.94667 6.46 3.75 7.02 3.75H20.4813C21.0396 3.75 21.5158 3.94667 21.91 4.34C22.3033 4.73333 22.5 5.21 22.5 5.77V13.9412C22.5 14.1421 22.4317 14.31 22.295 14.445C22.1575 14.58 21.9879 14.6558 21.7863 14.6725C20.7929 14.715 19.8667 14.9004 19.0075 15.2287C18.1483 15.5571 17.3542 16.0863 16.625 16.8162C15.9292 17.4971 15.3804 18.2879 14.9788 19.1887C14.5763 20.0887 14.375 21.0633 14.375 22.1125C14.375 22.6208 14.4229 23.12 14.5187 23.61C14.6137 24.1 14.7596 24.5763 14.9563 25.0387C15.0754 25.3288 15.0612 25.6033 14.9137 25.8625C14.7662 26.1208 14.545 26.25 14.25 26.25H7.01875Z" fill="#DE5A77"/>
</svg>
