<svg width="38" height="38" viewBox="0 0 38 38" fill="none" xmlns="http://www.w3.org/2000/svg">
<g clip-path="url(#clip0_19_24)">
<path d="M27.6364 0H10.3636C4.63996 0 0 4.63996 0 10.3636V27.6364C0 33.36 4.63996 38 10.3636 38H27.6364C33.36 38 38 33.36 38 27.6364V10.3636C38 4.63996 33.36 0 27.6364 0Z" fill="#FFD6E8"/>
<path d="M15.5454 12.0909V25.9091L26.7727 19L15.5454 12.0909Z" fill="#D9365E"/>
<path d="M12.0909 21.5909C13.5218 21.5909 14.6818 20.4309 14.6818 19C14.6818 17.5691 13.5218 16.4091 12.0909 16.4091C10.66 16.4091 9.5 17.5691 9.5 19C9.5 20.4309 10.66 21.5909 12.0909 21.5909Z" fill="#F9A8CC"/>
</g>
<defs>
<clipPath id="clip0_19_24">
<rect width="38" height="38" fill="white"/>
</clipPath>
</defs>
</svg>
