<svg width="38" height="38" viewBox="0 0 38 38" fill="none" xmlns="http://www.w3.org/2000/svg">
<g clip-path="url(#clip0_19_45)">
<path d="M27.6364 0H10.3636C4.63996 0 0 4.63996 0 10.3636V27.6364C0 33.36 4.63996 38 10.3636 38H27.6364C33.36 38 38 33.36 38 27.6364V10.3636C38 4.63996 33.36 0 27.6364 0Z" fill="#ECD6FF"/>
<path d="M15.5454 12.0909V25.9091L26.7727 19L15.5454 12.0909Z" fill="#8A40CC"/>
<path d="M12.0909 17.7045C13.2833 17.7045 14.2499 16.7379 14.2499 15.5454C14.2499 14.353 13.2833 13.3864 12.0909 13.3864C10.8984 13.3864 9.93176 14.353 9.93176 15.5454C9.93176 16.7379 10.8984 17.7045 12.0909 17.7045Z" fill="#C89EF0"/>
<path d="M12.0909 24.6137C13.2833 24.6137 14.2499 23.647 14.2499 22.4546C14.2499 21.2621 13.2833 20.2955 12.0909 20.2955C10.8984 20.2955 9.93176 21.2621 9.93176 22.4546C9.93176 23.647 10.8984 24.6137 12.0909 24.6137Z" fill="#C89EF0"/>
</g>
<defs>
<clipPath id="clip0_19_45">
<rect width="38" height="38" fill="white"/>
</clipPath>
</defs>
</svg>
