<svg width="29" height="29" viewBox="0 0 29 29" fill="none" xmlns="http://www.w3.org/2000/svg">
<path d="M14.5 3.625C7.84204 3.625 2.41663 7.96292 2.41663 13.2917C2.41663 16.8079 4.71246 19.9496 8.45829 21.6654V25.375C8.45829 25.8342 8.71204 26.2571 9.12288 26.4504C9.29204 26.535 9.47329 26.5833 9.66663 26.5833C9.92038 26.5833 10.1741 26.4988 10.3916 26.3417L14.9108 22.9583C21.3875 22.7892 26.5833 18.5117 26.5833 13.2917C26.5833 8.07167 21.1579 3.625 14.5 3.625ZM18.5479 13.5454L14.5 17.5208L10.452 13.5454L10.3795 13.4729C9.38871 12.4458 9.42496 10.8146 10.452 9.83583C11.5033 8.79667 13.1829 8.79667 14.222 9.83583L14.4879 10.1017L14.7537 9.83583C15.805 8.79667 17.4845 8.79667 18.5237 9.83583L18.5962 9.90833C19.587 10.9354 19.5508 12.5667 18.5237 13.5454H18.5479Z" fill="#FA72AF"/>
</svg>
