<svg width="30" height="30" viewBox="0 0 30 30" fill="none" xmlns="http://www.w3.org/2000/svg">
<path d="M25.7859 19.9986C25.6887 19.8814 25.5932 19.7643 25.4994 19.6512C24.2103 18.092 23.4305 17.151 23.4305 12.7371C23.4305 10.452 22.8838 8.57695 21.8062 7.1707C21.0117 6.13184 19.9377 5.34375 18.5221 4.76133C18.5038 4.75119 18.4876 4.7379 18.474 4.72207C17.9648 3.01699 16.5715 1.875 15 1.875C13.4285 1.875 12.0357 3.01699 11.5266 4.72031C11.513 4.73559 11.4969 4.74846 11.4791 4.7584C8.17558 6.11836 6.57011 8.72754 6.57011 12.7354C6.57011 17.151 5.7914 18.092 4.50116 19.6494C4.40741 19.7625 4.31191 19.8773 4.21464 19.9969C3.96339 20.2999 3.8042 20.6685 3.75592 21.0592C3.70763 21.4498 3.77227 21.8461 3.94218 22.2012C4.3037 22.9629 5.07421 23.4357 5.9537 23.4357H24.0527C24.9281 23.4357 25.6933 22.9635 26.056 22.2053C26.2267 21.8501 26.2919 21.4535 26.2441 21.0624C26.1962 20.6713 26.0372 20.3021 25.7859 19.9986ZM15 28.125C15.8467 28.1243 16.6774 27.8945 17.4041 27.4599C18.1307 27.0253 18.7262 26.4021 19.1273 25.6564C19.1462 25.6207 19.1556 25.5807 19.1544 25.5403C19.1533 25.4999 19.1417 25.4605 19.1208 25.4258C19.1 25.3912 19.0705 25.3626 19.0353 25.3427C19.0001 25.3229 18.9603 25.3125 18.9199 25.3125H11.0812C11.0408 25.3124 11.0009 25.3227 10.9657 25.3425C10.9304 25.3623 10.9008 25.391 10.8799 25.4256C10.8589 25.4602 10.8473 25.4997 10.8461 25.5401C10.845 25.5806 10.8543 25.6207 10.8732 25.6564C11.2743 26.402 11.8697 27.0251 12.5962 27.4597C13.3228 27.8943 14.1534 28.1242 15 28.125Z" fill="#FBC403"/>
</svg>
