<svg width="30" height="30" viewBox="0 0 30 30" fill="none" xmlns="http://www.w3.org/2000/svg">
<path d="M26.1499 6.29626C25.7442 5.72989 25.1691 5.30705 24.5074 5.08876L18.3337 3.03501C16.1641 2.32215 13.8233 2.32215 11.6537 3.03501L5.49119 5.08751C4.83011 5.3087 4.25527 5.73207 3.84792 6.29778C3.44058 6.86348 3.22134 7.54291 3.22119 8.24001V14.8613C3.22044 16.6479 3.67344 18.4055 4.53771 19.9692C5.40198 21.5328 6.64921 22.8514 8.16244 23.8013L13.2362 27.0025C13.7675 27.3265 14.3777 27.4979 14.9999 27.4979C15.6222 27.4979 16.2324 27.3265 16.7637 27.0025L21.8387 23.8013C23.3517 22.8513 24.5987 21.5326 25.4627 19.969C26.3268 18.4053 26.7796 16.6478 26.7787 14.8613V8.24126C26.7798 7.543 26.5589 6.86226 26.1499 6.29626ZM14.8924 19.3563C14.5724 19.3546 14.2661 19.2261 14.0407 18.9989C13.8152 18.7717 13.6891 18.4644 13.6899 18.1444C13.6908 17.8244 13.8185 17.5177 14.0451 17.2917C14.2717 17.0657 14.5787 16.9388 14.8987 16.9388C15.2187 16.9388 15.5257 17.0657 15.7523 17.2917C15.9789 17.5177 16.1066 17.8244 16.1074 18.1444C16.1083 18.4644 15.9821 18.7717 15.7567 18.9989C15.5313 19.2261 15.225 19.3546 14.9049 19.3563H14.8924ZM18.0462 12.7963C17.8773 13.1944 17.6259 13.5523 17.3087 13.8463C16.9884 14.1432 16.6094 14.3698 16.1962 14.5113V15.1163C16.2036 15.2795 16.1779 15.4425 16.1206 15.5954C16.0632 15.7484 15.9755 15.8882 15.8626 16.0063C15.7498 16.1244 15.6141 16.2184 15.4639 16.2826C15.3137 16.3469 15.1521 16.38 14.9887 16.38C14.8253 16.38 14.6637 16.3469 14.5135 16.2826C14.3632 16.2184 14.2276 16.1244 14.1148 16.0063C14.0019 15.8882 13.9142 15.7484 13.8568 15.5954C13.7995 15.4425 13.7738 15.2795 13.7812 15.1163V14.5963C13.7851 14.0728 13.9461 13.5626 14.2434 13.1318C14.5408 12.7009 14.9607 12.3694 15.4487 12.18C15.5545 12.1554 15.6508 12.1007 15.7262 12.0225C15.7913 11.9601 15.8447 11.8864 15.8837 11.805C15.8994 11.7174 15.8994 11.6276 15.8837 11.54C15.9028 11.4523 15.9028 11.3615 15.8837 11.2738C15.818 11.1616 15.7268 11.0665 15.6174 10.9963C15.5013 10.9058 15.3633 10.8476 15.2174 10.8275C14.9918 10.7762 14.7554 10.8047 14.5484 10.9082C14.3414 11.0117 14.1768 11.1837 14.0824 11.395C13.9988 11.5741 13.8726 11.7299 13.7148 11.8489C13.557 11.9679 13.3725 12.0463 13.1773 12.0774C12.9821 12.1085 12.7823 12.0913 12.5954 12.0272C12.4084 11.9632 12.24 11.8542 12.1049 11.71C11.9426 11.5338 11.8362 11.3134 11.799 11.0766C11.7619 10.8399 11.7957 10.5975 11.8962 10.38C12.2105 9.68774 12.7481 9.12101 13.4228 8.77061C14.0975 8.42022 14.8704 8.30644 15.6174 8.44751C16.1237 8.52876 16.6024 8.72751 17.0187 9.02751C17.4487 9.34626 17.7999 9.75876 18.0462 10.235C18.2399 10.6438 18.3462 11.0875 18.3587 11.54C18.3499 11.975 18.2462 12.4038 18.0587 12.7963H18.0462Z" fill="#FBC403"/>
</svg>
