<svg width="30" height="30" viewBox="0 0 30 30" fill="none" xmlns="http://www.w3.org/2000/svg">
<path d="M23.75 29.125L23 28.5C20.5 26.125 18.75 24.625 18.75 22.75C18.75 21.25 20 20 21.5 20C22.375 20 23.25 20.375 23.75 21C24.25 20.375 25.125 20 26 20C27.5 20 28.75 21.125 28.75 22.75C28.75 24.625 27 26.125 24.5 28.5L23.75 29.125ZM7.5 27.5C6.83696 27.5 6.20107 27.2366 5.73223 26.7678C5.26339 26.2989 5 25.663 5 25V5C5 3.6125 6.1125 2.5 7.5 2.5H8.75V11.25L11.875 9.375L15 11.25V2.5H22.5C23.163 2.5 23.7989 2.76339 24.2678 3.23223C24.7366 3.70107 25 4.33696 25 5V16.35L23.75 16.25C22.4338 16.2511 21.141 16.5982 20.0013 17.2565C18.8616 17.9149 17.9151 18.8614 17.2566 20.001C16.5981 21.1407 16.2509 22.4334 16.2498 23.7496C16.2486 25.0658 16.5935 26.3592 17.25 27.5H7.5Z" fill="#29C690"/>
</svg>
