<svg width="30" height="30" viewBox="0 0 30 30" fill="none" xmlns="http://www.w3.org/2000/svg">
<path d="M15 3.125C15.4973 3.125 15.9742 3.32254 16.3258 3.67417C16.6775 4.02581 16.875 4.50272 16.875 5C16.875 5.49728 16.6775 5.97419 16.3258 6.32583C15.9742 6.67746 15.4973 6.875 15 6.875H8.75C8.58424 6.875 8.42527 6.94085 8.30806 7.05806C8.19085 7.17527 8.125 7.33424 8.125 7.5V22.5C8.125 22.6658 8.19085 22.8247 8.30806 22.9419C8.42527 23.0592 8.58424 23.125 8.75 23.125H14.375C14.8723 23.125 15.3492 23.3225 15.7008 23.6742C16.0525 24.0258 16.25 24.5027 16.25 25C16.25 25.4973 16.0525 25.9742 15.7008 26.3258C15.3492 26.6775 14.8723 26.875 14.375 26.875H8.75C7.58968 26.875 6.47688 26.4141 5.65641 25.5936C4.83594 24.7731 4.375 23.6603 4.375 22.5V7.5C4.375 6.33968 4.83594 5.22688 5.65641 4.40641C6.47688 3.58594 7.58968 3.125 8.75 3.125H15ZM22.575 10.1375L26.1113 13.675C26.4624 14.0266 26.6596 14.5031 26.6596 15C26.6596 15.4969 26.4624 15.9734 26.1113 16.325L22.5763 19.8625C22.2245 20.2142 21.7474 20.4118 21.25 20.4118C20.7526 20.4118 20.2755 20.2142 19.9238 19.8625C19.572 19.5108 19.3744 19.0337 19.3744 18.5362C19.3744 18.0388 19.572 17.5617 19.9238 17.21L20.2588 16.875H15C14.5027 16.875 14.0258 16.6775 13.6742 16.3258C13.3225 15.9742 13.125 15.4973 13.125 15C13.125 14.5027 13.3225 14.0258 13.6742 13.6742C14.0258 13.3225 14.5027 13.125 15 13.125H20.2588L19.9238 12.79C19.7497 12.6158 19.6116 12.4091 19.5174 12.1816C19.4232 11.954 19.3748 11.7102 19.3748 11.4639C19.3749 11.2177 19.4235 10.9739 19.5178 10.7464C19.612 10.5189 19.7502 10.3122 19.9244 10.1381C20.0985 9.96404 20.3053 9.82597 20.5328 9.73178C20.7603 9.6376 21.0042 9.58916 21.2504 9.58922C21.4967 9.58927 21.7405 9.63783 21.968 9.73212C22.1955 9.82641 22.4022 9.96458 22.5763 10.1387L22.575 10.1375Z" fill="#DC4549"/>
</svg>
