<svg width="38" height="38" viewBox="0 0 38 38" fill="none" xmlns="http://www.w3.org/2000/svg">
<path d="M17.4168 14.25C17.4168 13.8301 17.5836 13.4273 17.8805 13.1304C18.1774 12.8335 18.5802 12.6667 19.0001 12.6667C19.42 12.6667 19.8228 12.8335 20.1197 13.1304C20.4166 13.4273 20.5834 13.8301 20.5834 14.25V17.4167C20.5834 17.8366 20.4166 18.2393 20.1197 18.5362C19.8228 18.8332 19.42 19 19.0001 19C18.5802 19 18.1774 18.8332 17.8805 18.5362C17.5836 18.2393 17.4168 17.8366 17.4168 17.4167V14.25ZM19.0001 21.375C18.3702 21.375 17.7661 21.6252 17.3207 22.0706C16.8753 22.516 16.6251 23.1201 16.6251 23.75C16.6251 24.3799 16.8753 24.984 17.3207 25.4294C17.7661 25.8748 18.3702 26.125 19.0001 26.125C19.63 26.125 20.2341 25.8748 20.6795 25.4294C21.1249 24.984 21.3751 24.3799 21.3751 23.75C21.3751 23.1201 21.1249 22.516 20.6795 22.0706C20.2341 21.6252 19.63 21.375 19.0001 21.375ZM16.5111 4.62017C16.7603 4.17951 17.1221 3.81291 17.5594 3.55784C17.9967 3.30277 18.4938 3.16837 19.0001 3.16837C19.5064 3.16837 20.0035 3.30277 20.4408 3.55784C20.8781 3.81291 21.2399 4.17951 21.4891 4.62017L34.4471 27.322C35.5491 29.2537 34.1653 31.6667 31.9549 31.6667H6.04843C3.8381 31.6667 2.45427 29.2537 3.55627 27.322L16.5111 4.62017ZM19.0001 6.71017L6.59627 28.4462H31.4039L19.0001 6.71017Z" fill="#936CE5"/>
</svg>
