<svg width="18" height="38" viewBox="0 0 18 38" fill="none" xmlns="http://www.w3.org/2000/svg">
<path d="M13.039 0.0103798C13.5302 -0.0282036 14.0237 0.0410553 14.4867 0.213529C14.9497 0.386002 15.3714 0.657717 15.7236 1.01052C16.0759 1.36332 16.3506 1.78908 16.5294 2.25936C16.7082 2.72963 16.787 3.23359 16.7605 3.73755V3.72805C16.7024 5.01149 16.1641 6.22273 15.2573 7.11021C14.3505 7.99769 13.1448 8.49322 11.8907 8.49388L11.7903 8.49229H11.7949C11.2971 8.54786 10.7935 8.48743 10.3217 8.31552C9.84984 8.14361 9.42206 7.86467 9.07028 7.49955C8.7185 7.13443 8.45182 6.69257 8.29018 6.207C8.12854 5.72143 8.07611 5.20471 8.13682 4.69546L8.13527 4.7113C8.18203 3.42205 8.72443 2.20403 9.64419 1.32282C10.5639 0.441619 11.7865 -0.0312899 13.0452 0.00721313H13.0375L13.039 0.0103798ZM5.39364 38.0009C3.434 38.0009 1.99518 36.7611 3.36755 31.3097L5.61773 21.6387C6.01027 20.0902 6.07364 19.4711 5.61773 19.4711C3.94397 19.9034 2.35668 20.6315 0.927273 21.6229L0.978273 21.5896L0 19.916C4.76927 15.7645 10.2587 13.331 12.6078 13.331C14.5675 13.331 14.8951 15.7471 13.9137 19.4648L11.339 29.6314C10.8815 31.4285 11.0794 32.0475 11.5337 32.0475C13.1725 31.6672 14.6931 30.875 15.9584 29.7422L15.946 29.7533L17.0587 31.3034C12.4162 36.1357 7.35173 38.004 5.39209 38.004L5.39364 38.0009Z" fill="#5A5CDE"/>
</svg>
