<svg width="38" height="38" viewBox="0 0 38 38" fill="none" xmlns="http://www.w3.org/2000/svg">
<path d="M4.75 20.5833C4.75 24.3627 6.25133 27.9872 8.92373 30.6596C11.5961 33.332 15.2207 34.8333 19 34.8333C19 26.9167 12.6192 20.5833 4.75 20.5833ZM19 8.70834C20.0498 8.70834 21.0566 9.12538 21.799 9.86771C22.5413 10.61 22.9583 11.6169 22.9583 12.6667C22.9583 13.7165 22.5413 14.7233 21.799 15.4656C21.0566 16.208 20.0498 16.625 19 16.625C17.9502 16.625 16.9434 16.208 16.201 15.4656C15.4587 14.7233 15.0417 13.7165 15.0417 12.6667C15.0417 11.6169 15.4587 10.61 16.201 9.86771C16.9434 9.12538 17.9502 8.70834 19 8.70834ZM8.86667 16.2292C8.86667 17.279 9.2837 18.2858 10.026 19.0281C10.7684 19.7705 11.7752 20.1875 12.825 20.1875C13.6642 20.1875 14.44 19.9183 15.0417 19.4908V19.7917C15.0417 20.8415 15.4587 21.8483 16.201 22.5906C16.9434 23.333 17.9502 23.75 19 23.75C20.0498 23.75 21.0566 23.333 21.799 22.5906C22.5413 21.8483 22.9583 20.8415 22.9583 19.7917V19.4908C23.56 19.9183 24.3358 20.1875 25.175 20.1875C26.2248 20.1875 27.2316 19.7705 27.974 19.0281C28.7163 18.2858 29.1333 17.279 29.1333 16.2292C29.1333 14.6458 28.1992 13.3 26.8692 12.6667C28.1992 12.0333 29.1333 10.6717 29.1333 9.10418C29.1333 8.05436 28.7163 7.04754 27.974 6.30521C27.2316 5.56288 26.2248 5.14584 25.175 5.14584C24.3358 5.14584 23.56 5.39918 22.9583 5.84251V5.54168C22.9583 4.49186 22.5413 3.48504 21.799 2.74271C21.0566 2.00038 20.0498 1.58334 19 1.58334C17.9502 1.58334 16.9434 2.00038 16.201 2.74271C15.4587 3.48504 15.0417 4.49186 15.0417 5.54168V5.84251C14.44 5.39918 13.6642 5.14584 12.825 5.14584C11.7752 5.14584 10.7684 5.56288 10.026 6.30521C9.2837 7.04754 8.86667 8.05436 8.86667 9.10418C8.86667 10.6717 9.80083 12.0333 11.1308 12.6667C9.80083 13.3 8.86667 14.6458 8.86667 16.2292ZM19 34.8333C22.7793 34.8333 26.4039 33.332 29.0763 30.6596C31.7487 27.9872 33.25 24.3627 33.25 20.5833C25.3333 20.5833 19 26.9167 19 34.8333Z" fill="#D9365E"/>
</svg>
