<svg width="38" height="38" viewBox="0 0 38 38" fill="none" xmlns="http://www.w3.org/2000/svg">
<path fill-rule="evenodd" clip-rule="evenodd" d="M19.0001 30.0833C19.3879 30.0834 19.7622 30.2258 20.052 30.4835C20.3418 30.7412 20.527 31.0963 20.5723 31.4814L20.5834 31.6667V33.25C20.583 33.6535 20.4284 34.0417 20.1514 34.3352C19.8744 34.6286 19.4957 34.8052 19.0929 34.8288C18.69 34.8525 18.2933 34.7214 17.9838 34.4624C17.6744 34.2034 17.4755 33.836 17.4278 33.4352L17.4167 33.25V31.6667C17.4167 31.2467 17.5836 30.844 17.8805 30.5471C18.1774 30.2501 18.5802 30.0833 19.0001 30.0833ZM11.1626 26.8375C11.4594 27.1344 11.6262 27.5371 11.6262 27.9569C11.6262 28.3767 11.4594 28.7794 11.1626 29.0763L10.0432 30.1957C9.89711 30.347 9.72239 30.4676 9.52922 30.5506C9.33605 30.6335 9.12828 30.6772 8.91805 30.6791C8.70782 30.6809 8.49932 30.6408 8.30474 30.5612C8.11015 30.4816 7.93337 30.364 7.78471 30.2154C7.63604 30.0667 7.51848 29.8899 7.43886 29.6953C7.35925 29.5007 7.31919 29.2923 7.32102 29.082C7.32285 28.8718 7.36652 28.664 7.4495 28.4709C7.53249 28.2777 7.65311 28.103 7.80433 27.9569L8.92375 26.8375C9.22067 26.5407 9.62332 26.3739 10.0432 26.3739C10.463 26.3739 10.8657 26.5407 11.1626 26.8375ZM29.0764 26.8375L30.1958 27.9569C30.4842 28.2555 30.6438 28.6555 30.6402 29.0706C30.6366 29.4858 30.4701 29.8829 30.1765 30.1765C29.883 30.47 29.4859 30.6365 29.0707 30.6401C28.6556 30.6437 28.2556 30.4842 27.957 30.1957L26.8376 29.0763C26.5492 28.7777 26.3896 28.3778 26.3932 27.9626C26.3968 27.5475 26.5633 27.1503 26.8569 26.8568C27.1504 26.5632 27.5476 26.3967 27.9627 26.3931C28.3778 26.3895 28.7778 26.5491 29.0764 26.8375ZM19.977 3.16666C20.749 3.16649 21.4944 3.44831 22.0732 3.95915C22.652 4.46999 23.0242 5.17465 23.1199 5.94066L23.7216 10.754C25.5387 11.7948 26.9611 13.4068 27.7675 15.3394C28.5739 17.272 28.7191 19.4168 28.1806 21.4405C27.6421 23.4642 26.4501 25.2532 24.7898 26.5295C23.1296 27.8057 21.0942 28.4976 19.0001 28.4976C16.906 28.4976 14.8706 27.8057 13.2103 26.5295C11.5501 25.2532 10.358 23.4642 9.81955 21.4405C9.28106 19.4168 9.4263 17.272 10.2327 15.3394C11.0391 13.4068 12.4614 11.7948 14.2786 10.754L14.8802 5.94066C14.976 5.17465 15.3482 4.46999 15.927 3.95915C16.5058 3.44831 17.2512 3.16649 18.0232 3.16666H19.977ZM19.0001 12.6667C17.3204 12.6667 15.7095 13.3339 14.5217 14.5216C13.334 15.7094 12.6667 17.3203 12.6667 19C12.6667 20.6797 13.334 22.2906 14.5217 23.4783C15.7095 24.6661 17.3204 25.3333 19.0001 25.3333C20.6798 25.3333 22.2907 24.6661 23.4784 23.4783C24.6662 22.2906 25.3334 20.6797 25.3334 19C25.3334 17.3203 24.6662 15.7094 23.4784 14.5216C22.2907 13.3339 20.6798 12.6667 19.0001 12.6667ZM6.33341 17.4167C6.75334 17.4167 7.15607 17.5835 7.453 17.8804C7.74993 18.1773 7.91675 18.5801 7.91675 19C7.91675 19.4199 7.74993 19.8226 7.453 20.1196C7.15607 20.4165 6.75334 20.5833 6.33341 20.5833H4.75008C4.33016 20.5833 3.92743 20.4165 3.6305 20.1196C3.33356 19.8226 3.16675 19.4199 3.16675 19C3.16675 18.5801 3.33356 18.1773 3.6305 17.8804C3.92743 17.5835 4.33016 17.4167 4.75008 17.4167H6.33341ZM33.2501 17.4167C33.67 17.4167 34.0727 17.5835 34.3697 17.8804C34.6666 18.1773 34.8334 18.5801 34.8334 19C34.8334 19.4199 34.6666 19.8226 34.3697 20.1196C34.0727 20.4165 33.67 20.5833 33.2501 20.5833H31.6667C31.2468 20.5833 30.8441 20.4165 30.5472 20.1196C30.2502 19.8226 30.0834 19.4199 30.0834 19C30.0834 18.5801 30.2502 18.1773 30.5472 17.8804C30.8441 17.5835 31.2468 17.4167 31.6667 17.4167H33.2501ZM30.1958 7.80582C30.4927 8.10274 30.6594 8.5054 30.6594 8.92524C30.6594 9.34508 30.4927 9.74774 30.1958 10.0447L29.0764 11.1641C28.9304 11.3153 28.7556 11.4359 28.5625 11.5189C28.3693 11.6019 28.1615 11.6456 27.9513 11.6474C27.7411 11.6492 27.5326 11.6092 27.338 11.5295C27.1434 11.4499 26.9666 11.3324 26.818 11.1837C26.6693 11.035 26.5517 10.8583 26.4721 10.6637C26.3925 10.4691 26.3524 10.2606 26.3543 10.0504C26.3561 9.84012 26.3998 9.63236 26.4828 9.43918C26.5657 9.24601 26.6864 9.0713 26.8376 8.92524L27.957 7.80582C28.2539 7.50899 28.6566 7.34224 29.0764 7.34224C29.4963 7.34224 29.8989 7.50899 30.1958 7.80582ZM10.0432 7.80582L11.1626 8.92524C11.4439 9.2252 11.5974 9.62284 11.5907 10.034C11.5841 10.4452 11.4177 10.8376 11.1268 11.1283C10.8359 11.4189 10.4434 11.5851 10.0322 11.5914C9.62104 11.5978 9.22351 11.444 8.92375 11.1625L7.80433 10.0431C7.52304 9.74311 7.36949 9.34548 7.37617 8.93431C7.38285 8.52315 7.54923 8.13071 7.84011 7.84004C8.13098 7.54937 8.52354 7.38326 8.93471 7.37688C9.34588 7.37049 9.7434 7.52432 10.0432 7.80582ZM19.977 6.33332H18.0232L17.6273 9.49999H20.3728L19.977 6.33332Z" fill="#DC4549"/>
</svg>
