<svg width="38" height="38" viewBox="0 0 38 38" fill="none" xmlns="http://www.w3.org/2000/svg">
<path d="M32.6562 4.75H5.34375C3.04832 4.75 1.1875 6.61082 1.1875 8.90625V23.1562C1.1875 25.4517 3.04832 27.3125 5.34375 27.3125H32.6562C34.9517 27.3125 36.8125 25.4517 36.8125 23.1562V8.90625C36.8125 6.61082 34.9517 4.75 32.6562 4.75Z" fill="#FFDDE4" stroke="#DE5A77" stroke-width="1.8"/>
<path d="M15.4375 11.875V21.375L26.125 16.625L15.4375 11.875Z" fill="#DE5A77"/>
<path d="M19 27.3125V32.0625" stroke="#DE5A77" stroke-width="1.8" stroke-linecap="round"/>
<path d="M11.875 32.0625H26.125" stroke="#DE5A77" stroke-width="1.8" stroke-linecap="round"/>
<path d="M30.875 1.78125L31.7063 4.15625L34.0813 4.9875L31.7063 5.81875L30.875 8.19375L30.0438 5.81875L27.6688 4.9875L30.0438 4.15625L30.875 1.78125Z" fill="#FF8FAB"/>
</svg>
