<svg width="38" height="38" viewBox="0 0 38 38" fill="none" xmlns="http://www.w3.org/2000/svg">
<path d="M31.4688 5.9375H6.53125C4.23582 5.9375 2.375 7.79832 2.375 10.0938V30.2812C2.375 32.5767 4.23582 34.4375 6.53125 34.4375H31.4688C33.7642 34.4375 35.625 32.5767 35.625 30.2812V10.0938C35.625 7.79832 33.7642 5.9375 31.4688 5.9375Z" fill="#D5E5FD" stroke="#6A9EE8" stroke-width="1.8"/>
<path d="M2.375 10.6875C2.375 8.3125 3.91875 5.9375 5.9375 5.9375H32.0625C34.0812 5.9375 35.625 8.3125 35.625 10.6875V14.25H2.375V10.6875Z" fill="#6A9EE8"/>
<path d="M11.875 3.5625V8.90625" stroke="#6A9EE8" stroke-width="2.2" stroke-linecap="round"/>
<path d="M26.125 3.5625V8.90625" stroke="#6A9EE8" stroke-width="2.2" stroke-linecap="round"/>
<path d="M10.6875 22.5625C11.9992 22.5625 13.0625 21.4992 13.0625 20.1875C13.0625 18.8758 11.9992 17.8125 10.6875 17.8125C9.37582 17.8125 8.3125 18.8758 8.3125 20.1875C8.3125 21.4992 9.37582 22.5625 10.6875 22.5625Z" fill="#6A9EE8"/>
<path d="M19 22.5625C20.3117 22.5625 21.375 21.4992 21.375 20.1875C21.375 18.8758 20.3117 17.8125 19 17.8125C17.6883 17.8125 16.625 18.8758 16.625 20.1875C16.625 21.4992 17.6883 22.5625 19 22.5625Z" fill="#AAC4F5"/>
<path d="M27.3125 22.5625C28.6242 22.5625 29.6875 21.4992 29.6875 20.1875C29.6875 18.8758 28.6242 17.8125 27.3125 17.8125C26.0008 17.8125 24.9375 18.8758 24.9375 20.1875C24.9375 21.4992 26.0008 22.5625 27.3125 22.5625Z" fill="#AAC4F5"/>
<path d="M10.6875 30.875C11.9992 30.875 13.0625 29.8117 13.0625 28.5C13.0625 27.1883 11.9992 26.125 10.6875 26.125C9.37582 26.125 8.3125 27.1883 8.3125 28.5C8.3125 29.8117 9.37582 30.875 10.6875 30.875Z" fill="#AAC4F5"/>
<path d="M19 31.4688C20.6396 31.4688 21.9688 30.1396 21.9688 28.5C21.9688 26.8604 20.6396 25.5312 19 25.5312C17.3604 25.5312 16.0312 26.8604 16.0312 28.5C16.0312 30.1396 17.3604 31.4688 19 31.4688Z" fill="#6A9EE8"/>
<path d="M27.3125 30.875C28.6242 30.875 29.6875 29.8117 29.6875 28.5C29.6875 27.1883 28.6242 26.125 27.3125 26.125C26.0008 26.125 24.9375 27.1883 24.9375 28.5C24.9375 29.8117 26.0008 30.875 27.3125 30.875Z" fill="#AAC4F5"/>
</svg>
