<svg width="39" height="38" viewBox="0 0 39 38" fill="none" xmlns="http://www.w3.org/2000/svg">
<path d="M19.5 19.5938C23.8751 19.5938 27.4219 16.1379 27.4219 11.875C27.4219 7.61205 23.8751 4.15625 19.5 4.15625C15.1249 4.15625 11.5781 7.61205 11.5781 11.875C11.5781 16.1379 15.1249 19.5938 19.5 19.5938Z" fill="#C8EEDD" stroke="#4DAA7A" stroke-width="1.8"/>
<path d="M6.09375 35.625C6.09375 26.125 12.1875 22.5625 19.5 22.5625C26.8125 22.5625 32.9062 26.125 32.9062 35.625H6.09375Z" fill="#C8EEDD" stroke="#4DAA7A" stroke-width="1.8" stroke-linejoin="round"/>
<path d="M25.5938 24.3438C25.5938 22.325 27.3 21.1375 29.0062 21.7313C29.6156 21.1375 30.7125 21.1375 31.5656 21.7313C33.2719 21.1375 35.1 22.325 35.1 24.3438C35.1 26.7188 32.2969 29.0938 30.4687 30.2813C28.6406 29.0938 25.5938 26.7188 25.5938 24.3438Z" fill="#4DAA7A"/>
</svg>
