<svg width="38" height="38" viewBox="0 0 38 38" fill="none" xmlns="http://www.w3.org/2000/svg">
<path d="M19 3.5625C12.4688 3.5625 7.125 8.90625 7.125 15.4375C7.125 19.5938 9.2625 23.1562 12.4688 25.175V27.9062C12.4688 28.8563 13.3 29.6875 14.25 29.6875H23.75C24.7 29.6875 25.5312 28.8563 25.5312 27.9062V25.175C28.7375 23.1562 30.875 19.5938 30.875 15.4375C30.875 8.90625 25.5312 3.5625 19 3.5625Z" fill="#E8D0F8" stroke="#9B5CDA" stroke-width="1.8"/>
<path d="M14.25 32.0625H23.75" stroke="#9B5CDA" stroke-width="1.8" stroke-linecap="round"/>
<path d="M16.0312 35.625H21.9688" stroke="#9B5CDA" stroke-width="1.8" stroke-linecap="round"/>
<path d="M5.9375 13.6562C6.92126 13.6562 7.71875 12.8588 7.71875 11.875C7.71875 10.8912 6.92126 10.0938 5.9375 10.0938C4.95374 10.0938 4.15625 10.8912 4.15625 11.875C4.15625 12.8588 4.95374 13.6562 5.9375 13.6562Z" fill="#C89EE8"/>
<path d="M32.0625 13.6562C33.0463 13.6562 33.8438 12.8588 33.8438 11.875C33.8438 10.8912 33.0463 10.0938 32.0625 10.0938C31.0787 10.0938 30.2812 10.8912 30.2812 11.875C30.2812 12.8588 31.0787 13.6562 32.0625 13.6562Z" fill="#C89EE8"/>
<path d="M26.125 6.53125C27.1088 6.53125 27.9062 5.73376 27.9062 4.75C27.9062 3.76624 27.1088 2.96875 26.125 2.96875C25.1412 2.96875 24.3438 3.76624 24.3438 4.75C24.3438 5.73376 25.1412 6.53125 26.125 6.53125Z" fill="#C89EE8"/>
<path d="M11.875 6.53125C12.8588 6.53125 13.6562 5.73376 13.6562 4.75C13.6562 3.76624 12.8588 2.96875 11.875 2.96875C10.8912 2.96875 10.0938 3.76624 10.0938 4.75C10.0938 5.73376 10.8912 6.53125 11.875 6.53125Z" fill="#C89EE8"/>
</svg>
