<svg width="38" height="38" viewBox="0 0 38 38" fill="none" xmlns="http://www.w3.org/2000/svg">
<g clip-path="url(#clip0_19_56)">
<path d="M27.6364 0H10.3636C4.63996 0 0 4.63996 0 10.3636V27.6364C0 33.36 4.63996 38 10.3636 38H27.6364C33.36 38 38 33.36 38 27.6364V10.3636C38 4.63996 33.36 0 27.6364 0Z" fill="#D6E5FF"/>
<path d="M15.5454 12.0909V25.9091L26.7727 19L15.5454 12.0909Z" fill="#4A78D9"/>
<path d="M13.8182 16.4091H12.0909C11.137 16.4091 10.3636 17.1824 10.3636 18.1364V19.8637C10.3636 20.8176 11.137 21.5909 12.0909 21.5909H13.8182C14.7721 21.5909 15.5455 20.8176 15.5455 19.8637V18.1364C15.5455 17.1824 14.7721 16.4091 13.8182 16.4091Z" fill="#9AB8F5"/>
</g>
<defs>
<clipPath id="clip0_19_56">
<rect width="38" height="38" fill="white"/>
</clipPath>
</defs>
</svg>
