<svg width="30" height="30" viewBox="0 0 30 30" fill="none" xmlns="http://www.w3.org/2000/svg">
<path d="M15 3.75C8.1125 3.75 2.5 8.2375 2.5 13.75C2.5 17.3875 4.875 20.6375 8.75 22.4125V26.25C8.75 26.725 9.0125 27.1625 9.4375 27.3625C9.6125 27.45 9.8 27.5 10 27.5C10.2625 27.5 10.525 27.4125 10.75 27.25L15.425 23.75C22.125 23.575 27.5 19.15 27.5 13.75C27.5 8.35 21.8875 3.75 15 3.75ZM19.1875 14.0125L15 18.125L10.8125 14.0125L10.7375 13.9375C9.7125 12.875 9.75 11.1875 10.8125 10.175C11.9 9.1 13.6375 9.1 14.7125 10.175L14.9875 10.45L15.2625 10.175C16.35 9.1 18.0875 9.1 19.1625 10.175L19.2375 10.25C20.2625 11.3125 20.225 13 19.1625 14.0125H19.1875Z" fill="#DE5A77"/>
</svg>
