<svg width="32" height="32" viewBox="0 0 32 32" fill="none" xmlns="http://www.w3.org/2000/svg">
<path fill-rule="evenodd" clip-rule="evenodd" d="M8.71327 17.5234C9.35494 18.3074 10.9869 21.2118 11.3333 22.6667H20.6667C21.0132 21.2129 22.6432 18.3086 23.2849 17.5257C24.3841 16.1812 25.0733 14.5598 25.2729 12.8484C25.4727 11.1369 25.1747 9.40495 24.4136 7.85215C23.6525 6.29929 22.459 4.98868 20.9707 4.07127C19.4825 3.15385 17.7599 2.66696 16.0015 2.66669C14.2431 2.66641 12.5204 3.15276 11.0318 4.06971C9.54327 4.98665 8.34934 6.29689 7.58774 7.84949C6.82607 9.40209 6.52759 11.1339 6.72674 12.8454C6.92587 14.557 7.61447 16.1786 8.71327 17.5234ZM16.6667 8.00002L12.6667 14H15.3333V18L19.3333 12H16.6667V8.00002Z" fill="#DE5A77"/>
<path d="M11.3333 24.6667C11.3333 24.2985 11.6318 24 12 24H20C20.3682 24 20.6667 24.2985 20.6667 24.6667C20.6667 25.0349 20.3682 25.3333 20 25.3333H12C11.6318 25.3333 11.3333 25.0349 11.3333 24.6667Z" fill="#DE5A77"/>
<path d="M20.6667 26.6667H11.3333V28C11.3333 28.7364 11.9303 29.3334 12.6667 29.3334H19.3333C20.0697 29.3334 20.6667 28.7364 20.6667 28V26.6667Z" fill="#DE5A77"/>
</svg>
