<svg width="32" height="32" viewBox="0 0 32 32" fill="none" xmlns="http://www.w3.org/2000/svg">
<path d="M6 12.6897C6 8.87274 8.54113 5.33334 12.0208 5.33334C14.4355 5.33334 16.2273 6.92134 17.3333 9.17408C18.4393 6.92148 20.2311 5.33334 22.6459 5.33334C26.1259 5.33334 28.6667 8.87334 28.6667 12.6897C28.6667 20.8592 17.3333 26.6667 17.3333 26.6667C17.3333 26.6667 9.69913 22.9915 6.96207 16.9629H13.7232L14.7979 15.0525L16.0531 19.4461L18.9927 15.6667H22.6667V14.3333H18.3406L16.6135 16.5539L15.2021 11.6141L12.9435 15.6296H6.45323C6.59455 16.0859 6.76573 16.5305 6.96207 16.9629L4 16.9629V15.6295L6.45323 15.6296C6.16429 14.6969 6 13.7154 6 12.6897Z" fill="#DE5A77"/>
</svg>
